# xmcd
#
# Track frame offsets: 
#        150
#        16505
#        32195
#        46102
#        60117
#        75860
#        92742
#        107192
#        122157
#        134237
#        154505
#
# Disc length: 2276 seconds
#
# Revision: 3
# Processed by: cddbd v1.4PL0 Copyright (c) Steve Scherf et al.
# Submitted via: ExactAudioCopy v0.90b4
#
DISCID=7a08e20b
DTITLE=Rick Trevino - Mi Vida Eres Tu
DYEAR=1996
DGENRE=Country
TTITLE0=Mi Vida Eres Tu (Bilingual)
TTITLE1=Estoy Tan Solo
TTITLE2=Se Escapan Mis Razones
TTITLE3=Oh Jenny
TTITLE4=Serio Amor
TTITLE5=Mi Vida Eres Tu
TTITLE6=Me Duele Que La Trate Tan Bien
TTITLE7=Vivo Por Ti
TTITLE8=Donde Vas
TTITLE9=Serio Amor (Dance Version)
TTITLE10=I Only Get This Way With You
EXTD=YEAR: 1996 ID3G:   2
EXTT0=
EXTT1=
EXTT2=
EXTT3=
EXTT4=
EXTT5=
EXTT6=
EXTT7=
EXTT8=
EXTT9=
EXTT10=
PLAYORDER=
